<svg xmlns="http://www.w3.org/2000/svg" width="256" height="256" viewBox="0 0 256 256" fill="none">
  <rect width="256" height="256" rx="56" fill="#18334A"/>
  <ellipse cx="132" cy="208" rx="66" ry="18" fill="rgba(0,0,0,0.22)"/>
  <path d="M74 110C74 70 104 42 146 42C188 42 214 68 214 110C214 152 182 184 142 184C100 184 74 154 74 110Z" fill="#F0BF95" stroke="#13283B" stroke-width="8"/>
  <path d="M124 70C132 28 170 16 198 40C212 52 212 78 196 92C182 104 160 104 142 98" fill="#F0BF95" stroke="#13283B" stroke-width="8" stroke-linejoin="round"/>
  <path d="M144 40C144 16 164 6 186 10C202 12 212 26 208 44C202 62 184 74 166 72" fill="#6F4D48" stroke="#13283B" stroke-width="8" stroke-linejoin="round"/>
  <path d="M148 16C160 -10 190 -6 194 26C186 40 174 50 160 56" fill="#F0BF95" stroke="#13283B" stroke-width="8" stroke-linejoin="round"/>
  <path d="M176 16C192 -10 222 0 222 28C212 44 200 52 188 56" fill="#F0BF95" stroke="#13283B" stroke-width="8" stroke-linejoin="round"/>
  <ellipse cx="172" cy="88" rx="34" ry="38" fill="#F0BF95" stroke="#13283B" stroke-width="8"/>
  <ellipse cx="182" cy="102" rx="20" ry="16" fill="#FFF0E0"/>
  <ellipse cx="162" cy="84" rx="8" ry="12" fill="#13283B"/>
  <ellipse cx="186" cy="92" rx="8" ry="12" fill="#13283B"/>
  <path d="M162 118C170 126 182 128 194 120" stroke="#13283B" stroke-width="8" stroke-linecap="round"/>
  <circle cx="150" cy="102" r="10" fill="#FFB6B3" fill-opacity=".5"/>
  <circle cx="194" cy="110" r="10" fill="#FFB6B3" fill-opacity=".45"/>
</svg>
